<?xml version="1.0" encoding="UTF-8"?>
<svg id="TEXTS" xmlns="http://www.w3.org/2000/svg" xmlns:xlink="http://www.w3.org/1999/xlink" viewBox="0 0 432.75 337.38">
  <defs>
    <clipPath id="clippath">
      <path d="M359.69,310.59s-31.19-63.31,63.95-90.91c0,0,6.63,95.94-63.95,90.91Z" style="fill: none;"/>
    </clipPath>
    <clipPath id="clippath-1">
      <path d="M76.82,303.9s-55.26,13.18-60.09-66.24c0,0,76.54,11.86,60.09,66.24Z" style="fill: none;"/>
    </clipPath>
  </defs>
  <g>
    <polygon points="432.75 99.75 426.15 99.75 426.15 93.15 421.47 93.15 421.47 99.75 414.87 99.75 414.87 104.43 421.47 104.43 421.47 111.03 426.15 111.03 426.15 104.43 432.75 104.43 432.75 99.75" style="fill: #cad2f9;"/>
    <polygon points="397.89 204.19 392.06 204.19 392.06 198.36 387.92 198.36 387.92 204.19 382.1 204.19 382.1 208.33 387.92 208.33 387.92 214.16 392.06 214.16 392.06 208.33 397.89 208.33 397.89 204.19" style="fill: #cad2f9;"/>
    <polygon points="148.9 36.51 143.07 36.51 143.07 30.68 138.93 30.68 138.93 36.51 133.11 36.51 133.11 40.65 138.93 40.65 138.93 46.48 143.07 46.48 143.07 40.65 148.9 40.65 148.9 36.51" style="fill: #cad2f9;"/>
    <polygon points="421.91 129.46 417.69 129.46 417.69 125.24 414.69 125.24 414.69 129.46 410.46 129.46 410.46 132.46 414.69 132.46 414.69 136.69 417.69 136.69 417.69 132.46 421.91 132.46 421.91 129.46" style="fill: #cad2f9;"/>
    <polygon points="129.88 62.08 125.66 62.08 125.66 57.85 122.66 57.85 122.66 62.08 118.43 62.08 118.43 65.08 122.66 65.08 122.66 69.31 125.66 69.31 125.66 65.08 129.88 65.08 129.88 62.08" style="fill: #cad2f9;"/>
    <polygon points="19.06 113.07 13.23 113.07 13.23 107.24 9.09 107.24 9.09 113.07 3.27 113.07 3.27 117.21 9.09 117.21 9.09 123.03 13.23 123.03 13.23 117.21 19.06 117.21 19.06 113.07" style="fill: #cad2f9;"/>
    <polygon points="21.19 294.87 16.96 294.87 16.96 290.64 13.96 290.64 13.96 294.87 9.74 294.87 9.74 297.87 13.96 297.87 13.96 302.1 16.96 302.1 16.96 297.87 21.19 297.87 21.19 294.87" style="fill: #cad2f9;"/>
  </g>
  <g>
    <circle cx="9.74" cy="210.06" r="3.91" style="fill: #e2e6ff;"/>
    <path d="M425.12,166.36c0,1.14-.92,2.06-2.06,2.06s-2.06-.92-2.06-2.06.92-2.06,2.06-2.06,2.06.92,2.06,2.06Z" style="fill: #e2e6ff;"/>
    <path d="M423.53,296.37c0,2.16-1.75,3.91-3.91,3.91s-3.91-1.75-3.91-3.91,1.75-3.91,3.91-3.91,3.91,1.75,3.91,3.91Z" style="fill: #e2e6ff;"/>
    <path d="M148.48,2.06c0,1.14-.92,2.06-2.06,2.06s-2.06-.92-2.06-2.06.92-2.06,2.06-2.06,2.06.92,2.06,2.06Z" style="fill: #e2e6ff;"/>
    <path d="M105.32,4.59c0,2.16-1.75,3.91-3.91,3.91s-3.91-1.75-3.91-3.91,1.75-3.91,3.91-3.91,3.91,1.75,3.91,3.91Z" style="fill: #e2e6ff;"/>
    <circle cx="176.58" cy="14.59" r="3.91" style="fill: #e2e6ff;"/>
    <path d="M4.13,149.38c0,1.14-.92,2.06-2.06,2.06s-2.06-.92-2.06-2.06.92-2.06,2.06-2.06,2.06.92,2.06,2.06Z" style="fill: #e2e6ff;"/>
    <path d="M43.09,217.62c0,1.14-.92,2.06-2.06,2.06s-2.06-.92-2.06-2.06.92-2.06,2.06-2.06,2.06.92,2.06,2.06Z" style="fill: #e2e6ff;"/>
    <path d="M414.98,58.09c0,1.14-.92,2.06-2.06,2.06s-2.06-.92-2.06-2.06.92-2.06,2.06-2.06,2.06.92,2.06,2.06Z" style="fill: #e2e6ff;"/>
    <path d="M338.06,20.43c0,1.14-.92,2.06-2.06,2.06s-2.06-.92-2.06-2.06.92-2.06,2.06-2.06,2.06.92,2.06,2.06Z" style="fill: #e2e6ff;"/>
    <circle cx="369.29" cy="8.41" r="3.91" style="fill: #e2e6ff;"/>
    <path d="M431.81,276.68c0,1.14-.92,2.06-2.06,2.06s-2.06-.92-2.06-2.06.92-2.06,2.06-2.06,2.06.92,2.06,2.06Z" style="fill: #e2e6ff;"/>
    <path d="M62.15,8.5c0,1.14-.92,2.06-2.06,2.06s-2.06-.92-2.06-2.06.92-2.06,2.06-2.06,2.06.92,2.06,2.06Z" style="fill: #e2e6ff;"/>
  </g>
  <ellipse cx="213.16" cy="318.96" rx="209.89" ry="18.42" style="fill: #edf0fc;"/>
  <g>
    <g>
      <g>
        <path d="M359.69,310.59s-31.19-63.31,63.95-90.91c0,0,6.63,95.94-63.95,90.91Z" style="fill: #eb725f;"/>
        <g style="clip-path: url(#clippath);">
          <path d="M436.4,234.42l-.54-.91c-18.81,11.2-35.93,15.12-40.98,16.11,4.71-5.56,9.36-10.66,13.56-15.08,1.89-.35,14.85-3.04,28.01-12.85l-.64-.85c-11.08,8.25-21.98,11.38-26.07,12.34,9.14-9.5,15.89-15.52,16.09-15.7l-.71-.79c-.2.18-7.1,6.33-16.4,16.02.9-12.06,6.82-23.87,6.88-23.99l-.95-.48c-.07.13-6.5,12.96-7.07,25.66-4.22,4.43-8.87,9.55-13.59,15.13.34-15.78,7.1-34.27,7.17-34.46l-1-.37c-.07.2-7.27,19.88-7.25,36.12-4.55,5.44-9.13,11.3-13.41,17.39-.83-22.73,5.89-46.18,5.96-46.42l-1.02-.29c-.07.25-7.12,24.82-5.94,48.16-3.17,4.58-6.15,9.29-8.81,14.03-4.71-24.44,1.36-46.62,1.42-46.85l-1.03-.29c-.07.23-6.42,23.41-1.2,48.59-2.6,4.78-4.86,9.6-6.63,14.36-6.02-17.09-7.19-41.57-6.93-42.99l-1.05-.19c-.28,1.53.8,27.07,7.41,44.74-1.62,4.62-2.76,9.19-3.3,13.63l1.06.13c.51-4.29,1.61-8.7,3.15-13.17,1.24.26,4.82.87,10.99.87.49,0,.99,0,1.51-.01,7.96-.12,21.39-1.34,40.16-6.41l-.28-1.02c-32.02,8.65-48.82,6.19-52.03,5.56,1.78-4.95,4.11-9.96,6.81-14.93.86.08,3.09.26,6.34.26,10.24,0,30.35-1.81,47.85-14.27l-.62-.86c-21.94,15.62-48.07,14.27-53.01,13.85,2.72-4.9,5.79-9.77,9.07-14.51,3.28-.33,32.51-3.68,51.98-18.86l-.65-.84c-18.03,14.05-44.59,17.85-50.52,18.54,4.33-6.18,8.98-12.13,13.6-17.64,2.51-.42,21.52-3.92,42.6-16.47Z" style="fill: #f9ab43;"/>
        </g>
      </g>
      <path d="M423.65,219.68c-5.63,1.63-10.8,3.39-15.58,5.26,2.06,6.16,3.19,12.82,3.19,19.78,0,31.59-23.22,57.19-51.85,57.19-.91,0-1.82-.03-2.72-.08,1.38,5.44,3.01,8.76,3.01,8.76,70.58,5.03,63.95-90.91,63.95-90.91Z" style="fill: #0046a0; opacity: .1;"/>
    </g>
    <g>
      <g>
        <path d="M76.82,303.9s-55.26,13.18-60.09-66.24c0,0,76.54,11.86,60.09,66.24Z" style="fill: #f9ab43;"/>
        <g style="clip-path: url(#clippath-1);">
          <path d="M30.57,230.29l-.81.26c5.46,16.72,5.52,30.83,5.39,34.96-3.54-4.68-6.72-9.22-9.44-13.3.06-1.54.24-12.17-5.13-24.22l-.78.35c4.52,10.14,5.05,19.23,5.07,22.61-5.84-8.84-9.38-15.2-9.48-15.39l-.75.41c.11.19,3.71,6.69,9.68,15.69-9.31-2.84-17.54-9.58-17.63-9.65l-.54.66c.09.07,9.03,7.39,18.91,10.1,2.74,4.09,5.93,8.64,9.48,13.33-12.34-3.07-25.67-11.65-25.8-11.74l-.47.72c.14.09,14.33,9.23,27.09,12.09,3.47,4.53,7.26,9.16,11.28,13.59-18.01-3.39-35.24-12.81-35.41-12.91l-.41.75c.18.1,18.24,9.99,36.78,13.21,3.04,3.29,6.21,6.47,9.47,9.39-20.03-.65-36.38-9.35-36.55-9.44l-.41.75c.17.09,17.25,9.18,37.96,9.57,3.3,2.89,6.68,5.51,10.11,7.75-14.49,1.68-33.93-1.75-34.99-2.21l-.34.79c1.15.49,21.41,4.18,36.46,2.14,3.35,2.09,6.73,3.8,10.13,5l.29-.8c-3.28-1.16-6.55-2.81-9.78-4.81.42-.93,1.54-3.62,2.63-8.45.09-.38.17-.78.26-1.19,1.31-6.26,2.74-16.99,2.08-32.6l-.85.04c1.13,26.61-3.79,39.34-4.85,41.74-3.57-2.27-7.09-4.99-10.52-7.99.22-.66.76-2.37,1.33-4.92,1.81-8.02,3.95-24.09-2.73-40.01l-.79.33c8.38,19.96,2.69,40.19,1.49,43.98-3.37-3-6.65-6.27-9.79-9.68.32-2.63,2.87-26.12-5.61-44.07l-.77.36c7.85,16.62,6.12,38.09,5.61,42.86-4.09-4.49-7.93-9.19-11.45-13.79.11-2.04.73-17.55-5.39-36.29Z" style="fill: #eb725f;"/>
        </g>
      </g>
      <path d="M16.73,237.66c.29,4.7.75,9.06,1.37,13.13,5.21-.52,10.64-.22,16.1,1.02,24.81,5.61,40.82,28.34,35.74,50.77-.16.71-.34,1.42-.54,2.12,4.52-.11,7.42-.8,7.42-.8,16.45-54.38-60.09-66.24-60.09-66.24Z" style="fill: #0046a0; opacity: .1;"/>
    </g>
  </g>
  <g>
    <rect x="55.34" y="80.11" width="315.64" height="196.56" rx="8" ry="8" style="fill: #6e7fdd;"/>
    <rect x="64.25" y="89.76" width="297.83" height="177.28" style="fill: #d0dbf7;"/>
    <rect x="164.16" y="276.68" width="98" height="24.54" style="fill: #8397ed;"/>
    <g>
      <path d="M309.06,315.31c-17.92-14.47-54.14-24.36-95.91-24.36s-77.98,9.89-95.91,24.36h191.81Z" style="fill: #6e7fdd;"/>
      <path d="M117.25,317.81h183.99c2.5,0,5,.06,7.5,0,.11,0,.22,0,.32,0,3.22,0,3.22-5,0-5H125.08c-2.5,0-5-.06-7.5,0-.11,0-.22,0-.32,0-3.22,0-3.22,5,0,5h0Z" style="fill: #8397ed;"/>
    </g>
    <g>
      <g>
        <rect x="80.51" y="102.09" width="265.29" height="153.38" style="fill: #fff;"/>
        <rect x="80.51" y="102.09" width="265.29" height="14.78" style="fill: #e2e6ff;"/>
      </g>
      <g>
        <path d="M93.41,109.82c0,1.87-1.51,3.38-3.38,3.38s-3.38-1.51-3.38-3.38,1.51-3.38,3.38-3.38,3.38,1.51,3.38,3.38Z" style="fill: #eb725f;"/>
        <path d="M104.8,109.82c0,1.87-1.51,3.38-3.38,3.38s-3.38-1.51-3.38-3.38,1.51-3.38,3.38-3.38,3.38,1.51,3.38,3.38Z" style="fill: #f9ab43;"/>
        <path d="M116.19,109.82c0,1.87-1.51,3.38-3.38,3.38s-3.38-1.51-3.38-3.38,1.51-3.38,3.38-3.38,3.38,1.51,3.38,3.38Z" style="fill: #6e7fdd;"/>
      </g>
    </g>
    <g>
      <path d="M306.9,181.74c0,9.14-7.86,16.62-17.46,16.62h-147.6c-9.6,0-17.46-7.48-17.46-16.62s7.86-16.62,17.46-16.62h147.6c9.6,0,17.46,7.48,17.46,16.62Z" style="fill: #e2e6ff;"/>
      <path d="M160.89,189.58l-6.06-5.64c.91-1.29,1.39-2.84,1.33-4.45-.07-1.94-.89-3.75-2.32-5.07-1.42-1.33-3.28-2.02-5.23-1.95-1.94.07-3.75.89-5.07,2.32-1.33,1.42-2.02,3.28-1.95,5.23.07,1.94.89,3.75,2.32,5.07,1.42,1.33,3.28,2.02,5.23,1.95,1.61-.06,3.12-.64,4.34-1.64l6.06,5.64,1.35-1.45ZM145.27,183.64c-1.04-.97-1.64-2.28-1.69-3.69-.05-1.42.45-2.77,1.42-3.81.97-1.04,2.28-1.64,3.69-1.69,1.42-.05,2.77.45,3.81,1.42h0c1.04.97,1.64,2.28,1.69,3.69.05,1.42-.45,2.77-1.42,3.81-.97,1.04-2.28,1.64-3.69,1.69-1.42.05-2.77-.45-3.81-1.42Z" style="fill: #6e7fdd;"/>
      <g>
        <circle cx="187.16" cy="181.46" r="1.71" style="fill: #b6c3f2;"/>
        <circle cx="207.16" cy="181.46" r="1.71" style="fill: #b6c3f2;"/>
        <circle cx="227.16" cy="181.46" r="1.71" style="fill: #b6c3f2;"/>
        <circle cx="247.16" cy="181.46" r="1.71" style="fill: #b6c3f2;"/>
      </g>
    </g>
  </g>
  <g>
    <g>
      <g>
        <rect x="272.82" y="42.22" width="132.05" height="145.28" style="fill: #f5f9ff;"/>
        <rect x="272.82" y="42.22" width="132.05" height="16.38" style="fill: #e2e6ff;"/>
      </g>
      <g>
        <path d="M287.11,50.78c0,2.07-1.68,3.75-3.75,3.75s-3.75-1.68-3.75-3.75,1.68-3.75,3.75-3.75,3.75,1.68,3.75,3.75Z" style="fill: #eb725f;"/>
        <path d="M299.73,50.78c0,2.07-1.68,3.75-3.75,3.75s-3.75-1.68-3.75-3.75,1.68-3.75,3.75-3.75,3.75,1.68,3.75,3.75Z" style="fill: #f9ab43;"/>
        <path d="M312.35,50.78c0,2.07-1.68,3.75-3.75,3.75s-3.75-1.68-3.75-3.75,1.68-3.75,3.75-3.75,3.75,1.68,3.75,3.75Z" style="fill: #6e7fdd;"/>
      </g>
    </g>
    <g>
      <g>
        <g>
          <rect x="383.95" y="125.89" width="7.71" height="69.13" transform="translate(.13 321.22) rotate(-45)" style="fill: #eb725f;"/>
          <rect x="362.56" y="132.34" width="14.51" height="20.23" transform="translate(7.58 303.22) rotate(-45)" style="fill: #6e7fdd;"/>
        </g>
        <g>
          <g style="opacity: .2;">
            <path d="M363.37,136.01c-12.79,12.79-33.59,12.79-46.37,0s-12.78-33.59,0-46.37c12.78-12.79,33.59-12.79,46.37,0,12.79,12.79,12.78,33.59,0,46.37Z" style="fill: #f5f9ff;"/>
          </g>
          <path d="M366.48,139.13c-14.5,14.5-38.1,14.5-52.6,0s-14.5-38.1,0-52.6c14.5-14.5,38.1-14.5,52.6,0,14.5,14.5,14.5,38.1,0,52.6ZM319.34,91.98c-11.49,11.49-11.49,30.2,0,41.69s30.2,11.49,41.69,0,11.49-30.2,0-41.69c-11.49-11.49-30.2-11.49-41.69,0Z" style="fill: #eb725f;"/>
        </g>
      </g>
      <polygon points="356.49 101.32 351.69 96.52 340.18 108.02 328.68 96.52 323.87 101.32 335.38 112.83 323.87 124.33 328.68 129.14 340.18 117.63 351.69 129.14 356.49 124.33 344.99 112.83 356.49 101.32" style="fill: #f9ab43;"/>
    </g>
  </g>
  <g>
    <g>
      <polygon points="129.76 210.06 70.02 210.06 70.02 317.97 162.16 317.97 162.16 241.1 129.76 210.06" style="fill: #eb725f;"/>
      <polygon points="129.76 210.06 162.16 241.1 129.76 241.1 129.76 210.06" style="fill: #f4aea6;"/>
    </g>
    <g>
      <g>
        <path d="M106.26,251.53c0,3.24-1.88,5.86-4.2,5.86s-4.2-2.63-4.2-5.86,1.88-5.86,4.2-5.86,4.2,2.63,4.2,5.86Z" style="fill: #fff;"/>
        <ellipse cx="130" cy="251.53" rx="4.2" ry="5.86" style="fill: #fff;"/>
      </g>
      <path d="M104.34,269.14c1.75-1.92,4.18-3.42,6.6-4.29,6.13-2.21,12.05.1,16.71,4.29,1.25,1.12,3.1-.72,1.85-1.85-5.17-4.65-11.88-7.38-18.76-5.13-3.02.99-6.08,2.77-8.24,5.13-1.13,1.24.71,3.09,1.85,1.85h0Z" style="fill: #fff;"/>
    </g>
  </g>
  <g>
    <path d="M98.28,28.11H31.09c-4.01,0-7.29,3.28-7.29,7.29v47.13c0,4.01,3.28,7.29,7.29,7.29h23.61l9.99,12.17,9.99-12.17h23.61c4.01,0,7.29-3.28,7.29-7.29v-47.13c0-4.01-3.28-7.29-7.29-7.29Z" style="fill: #f9ab43;"/>
    <path d="M64.69,36.87c-12.27,0-22.25,9.98-22.25,22.25s9.98,22.25,22.25,22.25,22.25-9.98,22.25-22.25-9.98-22.25-22.25-22.25ZM64.69,41.06c4.22,0,8.11,1.46,11.19,3.9l-25.34,25.34c-2.44-3.08-3.9-6.96-3.9-11.19,0-9.95,8.1-18.05,18.05-18.05ZM64.69,77.17c-4.22,0-8.11-1.46-11.19-3.9l25.34-25.34c2.44,3.08,3.9,6.96,3.9,11.19,0,9.96-8.1,18.05-18.05,18.05Z" style="fill: #fff;"/>
  </g>
  <g>
    <g>
      <g>
        <polygon points="349.07 217.62 293.35 217.25 292.68 317.92 378.64 318.49 379.11 246.77 349.07 217.62" style="fill: #d0dbf7;"/>
        <polygon points="349.07 217.62 379.11 246.77 348.88 246.57 349.07 217.62" style="fill: #e3ebfc;"/>
      </g>
      <polygon points="354.22 255.14 348.91 249.77 336.03 262.48 323.31 249.6 317.93 254.9 330.65 267.79 317.76 280.51 323.07 285.88 335.96 273.17 348.67 286.05 354.05 280.75 341.33 267.86 354.22 255.14" style="fill: #eef4ff;"/>
    </g>
    <g>
      <g>
        <polygon points="68.1 139.96 34.75 123.25 4.55 183.5 55.99 209.28 77.5 166.36 68.1 139.96" style="fill: #d0dbf7;"/>
        <polygon points="68.1 139.96 77.5 166.36 59.41 157.29 68.1 139.96" style="fill: #e3ebfc;"/>
      </g>
      <polygon points="60.08 164.02 58.49 159.22 46.99 163.04 43.16 151.54 38.36 153.13 42.18 164.64 30.68 168.46 32.28 173.26 43.78 169.44 47.6 180.94 52.4 179.34 48.58 167.84 60.08 164.02" style="fill: #eef4ff;"/>
    </g>
    <g>
      <g>
        <polygon points="192.85 28.13 166.16 36.81 181.85 85.03 223.02 71.64 211.84 37.28 192.85 28.13" style="fill: #d0dbf7;"/>
        <polygon points="192.85 28.13 211.84 37.28 197.36 42 192.85 28.13" style="fill: #e3ebfc;"/>
      </g>
      <polygon points="201.28 45.24 197.89 43.52 193.75 51.64 185.62 47.51 183.9 50.9 192.02 55.04 187.89 63.16 191.28 64.89 195.41 56.76 203.54 60.9 205.27 57.51 197.14 53.37 201.28 45.24" style="fill: #eef4ff;"/>
    </g>
  </g>
  <g>
    <path d="M275.25,23.5h-2.34c-.49-2.07-1.3-4.01-2.37-5.78l1.66-1.65c1.3-1.29,1.3-3.4.02-4.69l-1.93-1.94c-1.29-1.3-3.4-1.3-4.69-.02l-1.66,1.65c-1.76-1.09-3.69-1.91-5.75-2.41v-2.34c.01-1.83-1.47-3.32-3.3-3.33h-2.73c-1.83-.02-3.32,1.47-3.33,3.3v2.34c-2.07.49-4.01,1.3-5.78,2.37l-1.65-1.66c-1.29-1.3-3.4-1.3-4.69-.02l-1.94,1.93c-1.3,1.29-1.3,3.4-.02,4.69l1.65,1.66c-1.09,1.76-1.91,3.69-2.41,5.75h-2.34c-1.83-.01-3.32,1.47-3.33,3.3v2.74c-.02,1.83,1.47,3.32,3.3,3.33h2.34c.49,2.07,1.3,4.01,2.37,5.78l-1.66,1.65c-1.3,1.29-1.3,3.4-.02,4.69l1.93,1.94c1.29,1.3,3.4,1.3,4.69.02l1.66-1.65c1.76,1.09,3.69,1.91,5.75,2.41v2.34c-.01,1.83,1.47,3.32,3.3,3.33h2.73c1.83.02,3.32-1.47,3.33-3.3v-2.34c2.07-.49,4.01-1.3,5.78-2.37l1.65,1.66c1.29,1.3,3.4,1.3,4.69.02l1.94-1.93c1.3-1.29,1.3-3.4.02-4.69l-1.65-1.66c1.09-1.76,1.91-3.69,2.41-5.75h2.34c1.83.01,3.32-1.47,3.33-3.3v-2.74c.02-1.83-1.47-3.32-3.3-3.33ZM253.4,37.37c-5.12-.02-9.25-4.18-9.23-9.29.02-5.11,4.18-9.25,9.29-9.23,5.12.02,9.25,4.18,9.23,9.29-.02,5.12-4.18,9.25-9.29,9.23Z" style="fill: #eb725f;"/>
    <path d="M253.48,14.9c-7.3-.03-13.23,5.87-13.26,13.17-.03,7.3,5.87,13.23,13.17,13.26,7.3.03,13.23-5.87,13.26-13.17.03-7.3-5.87-13.23-13.17-13.26ZM253.41,36.32c-4.53-.02-8.19-3.7-8.18-8.23.02-4.53,3.7-8.19,8.23-8.18,4.53.02,8.19,3.7,8.18,8.23-.02,4.53-3.7,8.19-8.23,8.18Z" style="fill: #f9ab43;"/>
  </g>
  <text transform="translate(89.25 288.83)" style="fill: #fff; font-family: Prompt-Black, Prompt; font-size: 11.47px; font-weight: 800;"><tspan x="0" y="0" style="letter-spacing: .1em;">NO </tspan><tspan x="24.13" y="0" style="letter-spacing: .04em;">D</tspan><tspan x="32.62" y="0" style="letter-spacing: -.03em;">AT</tspan><tspan x="48.22" y="0" style="letter-spacing: .1em;">A</tspan></text>
</svg>