<?xml version="1.0" encoding="UTF-8"?>
<svg id="Objects" xmlns="http://www.w3.org/2000/svg" viewBox="0 0 1472.66 1294.57">
  <path d="M485.05,69.11h778.7c47.17,0,85.4,38.24,85.4,85.4v196.37H485.05V69.11Z" style="fill: #d4d4f4;"/>
  <path d="M1471,299.95v898.61c0,53.02-42.98,96.01-96.01,96.01H96.01c-53.02,0-96.01-42.98-96.01-96.01V96.01C0,42.98,42.98,0,96.01,0h393.95c31.84,0,61.61,15.79,79.47,42.14l81.1,119.66c17.86,26.36,47.63,42.14,79.47,42.14h644.98c53.02,0,96.01,42.98,96.01,96.01Z" style="fill: #003;"/>
  <path d="M155.49,1294.56h-59.48c-53.03,0-96.01-42.98-96.01-96V96C0,42.98,42.98,0,96.01,0h59.48C102.46,0,59.48,42.98,59.48,96v1102.56c0,53.02,42.98,96,96.01,96Z" style="fill: #3737e2;"/>
  <path d="M1317.16,1294.56h59.48c53.03,0,96.01-42.96,96.01-95.95V299.89c0-52.99-42.98-95.95-96.01-95.95h-59.48c53.03,0,96.01,42.96,96.01,95.95v898.73c0,52.99-42.98,95.95-96.01,95.95Z" style="fill: #00007a;"/>
  <path d="M1073.29,1101.32H400.37c-76.42,0-122.24-84.92-80.27-148.79l336.46-512.05c37.94-57.74,122.6-57.74,160.54,0l336.46,512.05c41.97,63.87-3.85,148.79-80.27,148.79Z" style="fill: #fff;"/>
  <path d="M774.89,604.43l-14.94,237.01c-.82,13.05-12.07,22.96-25.11,22.14-12.08-.76-21.46-10.45-22.14-22.24l-13.94-237.07c-1.24-21.02,14.81-39.07,35.83-40.31,22.66-1.5,41.86,17.84,40.3,40.47h0Z" style="fill: #003;"/>
  <circle cx="736.33" cy="939.88" r="33.73" style="fill: #003;"/>
</svg>